<?xml version="1.0" encoding="UTF-8"?>
<svg version="1.1" xmlns="http://www.w3.org/2000/svg" width="512" height="512">
<path d="M0 0 C23.64468125 11.25763715 42.07165469 38.17904362 53 61 C53.1745874 61.67869141 53.3491748 62.35738281 53.52905273 63.05664062 C54.40849838 66.37717888 55.13044466 68.38763858 58 70.40844727 C60.72646957 71.73289299 63.46917067 72.82418949 66.3125 73.875 C67.3655835 74.28645264 68.41866699 74.69790527 69.50366211 75.12182617 C72.98750797 76.45934924 76.48838354 77.73727416 80 79 C81.22009766 79.4419873 82.44019531 79.88397461 83.69726562 80.33935547 C127.47035167 96.0059319 157.82672835 94.83453423 201.16796875 79.35498047 C204.60452112 78.12949252 208.06577917 76.98889782 211.53125 75.84765625 C221.46637696 72.58104656 221.46637696 72.58104656 228.54296875 65.33984375 C230.13594567 61.99483567 231.2316333 58.54146235 232.30322266 55.00146484 C235.38795149 46.14070557 242.05441908 38.13698827 248 31 C248.42265137 30.48324707 248.84530273 29.96649414 249.28076172 29.43408203 C269.88414093 4.29838968 269.88414093 4.29838968 284 -1 C287.11222763 -0.850152 289.13736142 -0.6170262 291.6875 1.20703125 C318.36266669 33.83647622 318.20683486 93.22066965 318.25 133.1875 C318.25300613 134.55456589 318.25300613 134.55456589 318.256073 135.94924927 C318.26366016 150.13120781 317.51754916 163.9784154 315.75390625 178.05859375 C315.63321777 179.05246094 315.5125293 180.04632813 315.38818359 181.0703125 C315.12370331 183.0663901 314.81206414 185.05665112 314.45947266 187.0390625 C314.03702088 189.79951075 313.7408333 192.21913255 314 195 C316.23861534 197.55744843 317.41837749 198.55939793 320.25 200.125 C321.55925919 200.9526248 322.86653275 201.78339852 324.171875 202.6171875 C324.82478516 203.01776367 325.47769531 203.41833984 326.15039062 203.83105469 C358.27755615 224.1352876 380.06586891 261.76943036 388.47998047 298.07080078 C390.52200967 307.33576645 391.57084792 316.52905757 392 326 C389.4134494 323.43683593 386.86947262 320.86071893 384.37890625 318.203125 C374.78101503 308.04908154 364.33493407 300.57763822 351 296 C351.95519531 296.79921875 352.91039062 297.5984375 353.89453125 298.421875 C374.99134443 316.25637911 392.88338425 337.70478039 397 366 C397.20981931 370.20696525 397.18508501 374.41326581 397.1875 378.625 C397.19974609 379.75679688 397.21199219 380.88859375 397.22460938 382.0546875 C397.22750977 383.68664062 397.22750977 383.68664062 397.23046875 385.3515625 C397.23457764 386.33979004 397.23868652 387.32801758 397.24291992 388.34619141 C396.99521503 391.05227394 396.3839149 392.68741889 395 395 C394.58492188 394.47792969 394.16984375 393.95585937 393.7421875 393.41796875 C382.80024762 380.34715772 368.76370517 372.10180227 354 364 C354.4846875 364.825 354.969375 365.65 355.46875 366.5 C371.94202482 394.76065211 382.36467246 424.02549406 382.0625 457.125 C382.05798828 458.08148438 382.05347656 459.03796875 382.04882812 460.0234375 C382.03720017 462.34902758 382.02086102 464.6744776 382 467 C378.7135096 463.7993935 375.72509844 460.52992446 372.875 456.9375 C362.22025448 443.81311148 350.59031296 432.13401115 337 422 C337.27263672 422.80812134 337.27263672 422.80812134 337.55078125 423.63256836 C346.58868681 450.56378885 351.61936019 476.50943117 351 505 C347.62048274 501.85142925 345.0397062 498.34980734 342.4375 494.5625 C316.18345725 457.24076785 278.17701645 429.93613901 232.94140625 421.4453125 C230.00145411 420.92515566 230.00145411 420.92515566 227 421 C221.17153032 431.09666318 215.85774207 441.30345889 210.9375 451.875 C206.76347876 460.75950294 202.60194684 468.65163421 196 476 C195.14728516 476.99580078 195.14728516 476.99580078 194.27734375 478.01171875 C187.0510744 485.88715651 177.50310109 490.41149178 167.9375 494.8125 C167.11096924 495.19776855 166.28443848 495.58303711 165.43286133 495.97998047 C151.46685118 502.21626198 135.4571866 503.37303922 121 498 C109.8825937 493.39712264 98.64294065 488.57721487 90 480 C89.23945313 479.26523437 88.47890625 478.53046875 87.6953125 477.7734375 C77.35093144 467.08076078 71.59383751 453.37462873 65.38745117 440.05834961 C62.28624027 433.45237047 58.88832047 427.17667861 55 421 C11.08454348 426.83301334 -27.99319732 451.92537253 -55.06591797 486.70849609 C-58.77424111 491.57189273 -62.16103481 496.60686767 -65.44140625 501.76953125 C-67 504 -67 504 -69 505 C-69.97046718 477.17994073 -65.60136922 449.75659119 -55 424 C-55.33 423.67 -55.66 423.34 -56 423 C-70.94971165 434.91856933 -84.39992682 447.54475001 -95.86572266 462.93701172 C-96.88994145 464.3069408 -97.94219292 465.65583707 -99 467 C-99.33 467 -99.66 467 -100 467 C-100.93279071 433.21224759 -94.20827232 401.4407528 -76.8828125 372.1875 C-75.48320822 369.81804545 -74.17912114 367.4823603 -73 365 C-88.54675201 372.6981151 -101.89020947 382.51177851 -114 395 C-118.04792109 381.07368466 -115.67731436 363.4934365 -111 350 C-110.649375 348.96230469 -110.29875 347.92460937 -109.9375 346.85546875 C-103.1183053 328.78933836 -89.94416355 314.13021722 -75.75 301.4609375 C-73.76627104 299.6857255 -71.84807162 297.91224077 -70 296 C-84.38238475 302.70940033 -94.90172577 310.55125396 -106 322 C-107.33105997 323.33560283 -108.66361906 324.66972126 -110 326 C-106.73613827 280.64693626 -87.85482983 241.59765961 -54 211 C-47.07600928 205.11520513 -39.64356516 199.90369036 -32 195 C-32.47228709 189.33607418 -33.01889283 183.69492319 -33.75390625 178.05859375 C-40.08651957 127.57476941 -43.4988803 46.34456556 -11.67578125 3.8125 C-7.72163065 -0.4642503 -5.84533852 -1.64563034 0 0 Z " fill="#666B6F" transform="translate(115,4)"/>
<path d="M0 0 C23.64468125 11.25763715 42.07165469 38.17904362 53 61 C53.1745874 61.67869141 53.3491748 62.35738281 53.52905273 63.05664062 C54.40849838 66.37717888 55.13044466 68.38763858 58 70.40844727 C60.72646957 71.73289299 63.46917067 72.82418949 66.3125 73.875 C67.3655835 74.28645264 68.41866699 74.69790527 69.50366211 75.12182617 C72.98750797 76.45934924 76.48838354 77.73727416 80 79 C81.22009766 79.4419873 82.44019531 79.88397461 83.69726562 80.33935547 C102.437261 87.0464807 121.20175098 92.52521887 141 95 C141 211.16 141 327.32 141 447 C131.595 448.485 131.595 448.485 122 450 C117.01958712 451.831876 113.00686409 453.51577035 109 457 C113.98208 468.16403267 124.39358274 478.3069573 135.5625 483 C137.3680546 483.68525418 139.17831231 484.35886457 141 485 C141 486.65 141 488.3 141 490 C128.40113369 490.24596485 116.2958275 490.20851851 106 482 C106.93307421 483.44037669 107.87165077 484.87718985 108.8125 486.3125 C109.33457031 487.11300781 109.85664063 487.91351563 110.39453125 488.73828125 C111.80389849 490.7237402 113.22096657 492.3491852 115 494 C98.48727777 489.45301852 86.10640974 478.28005316 77 464 C73.95769835 458.61748611 71.40317828 452.98424447 68.8125 447.375 C67.47201129 444.50440658 66.12353933 441.63767737 64.76953125 438.7734375 C64.44961212 438.09472595 64.12969299 437.4160144 63.80007935 436.71673584 C61.20027942 431.26758727 58.27010884 426.07863057 55 421 C11.08454348 426.83301334 -27.99319732 451.92537253 -55.06591797 486.70849609 C-58.77424111 491.57189273 -62.16103481 496.60686767 -65.44140625 501.76953125 C-67 504 -67 504 -69 505 C-69.97046718 477.17994073 -65.60136922 449.75659119 -55 424 C-55.33 423.67 -55.66 423.34 -56 423 C-70.94971165 434.91856933 -84.39992682 447.54475001 -95.86572266 462.93701172 C-96.88994145 464.3069408 -97.94219292 465.65583707 -99 467 C-99.33 467 -99.66 467 -100 467 C-100.93279071 433.21224759 -94.20827232 401.4407528 -76.8828125 372.1875 C-75.48320822 369.81804545 -74.17912114 367.4823603 -73 365 C-88.54675201 372.6981151 -101.89020947 382.51177851 -114 395 C-118.04792109 381.07368466 -115.67731436 363.4934365 -111 350 C-110.649375 348.96230469 -110.29875 347.92460937 -109.9375 346.85546875 C-103.1183053 328.78933836 -89.94416355 314.13021722 -75.75 301.4609375 C-73.76627104 299.6857255 -71.84807162 297.91224077 -70 296 C-84.38238475 302.70940033 -94.90172577 310.55125396 -106 322 C-107.33105997 323.33560283 -108.66361906 324.66972126 -110 326 C-106.73613827 280.64693626 -87.85482983 241.59765961 -54 211 C-47.07600928 205.11520513 -39.64356516 199.90369036 -32 195 C-32.47228709 189.33607418 -33.01889283 183.69492319 -33.75390625 178.05859375 C-40.08651957 127.57476941 -43.4988803 46.34456556 -11.67578125 3.8125 C-7.72163065 -0.4642503 -5.84533852 -1.64563034 0 0 Z " fill="#787D80" transform="translate(115,4)"/>
<path d="M0 0 C24.69060857 11.75562103 45.95559736 41.64217165 55.1015625 66.55078125 C74.38383581 121.56039082 74.38383581 121.56039082 63.70703125 144.9140625 C47.55765013 174.10859588 15.85158691 199.05287764 -16 209 C-19.3204766 209.74175015 -22.65226352 210.39403489 -26 211 C-43.29568241 152.32810566 -43.83287089 68.08533651 -17 12 C-8.78821462 -2.47413431 -8.78821462 -2.47413431 0 0 Z " fill="#888D91" transform="translate(115,4)"/>
<path d="M0 0 C21.82794925 17.93214729 23.85506875 64.65753658 26.45703125 90.62109375 C27.72294989 104.82193244 28.24044815 118.93533351 28.25 133.1875 C28.25067474 134.10153595 28.25134949 135.0155719 28.25204468 135.95730591 C28.22197444 161.78482802 26.35977635 186.7026736 17 211 C-15.25197685 203.95646483 -48.45959996 180.51696751 -66.8125 153.125 C-77.60999538 136.02565354 -76.71093057 117.76108931 -72.42919922 98.421875 C-65.81646396 70.04903036 -56.09171753 45.89991155 -36.10546875 24.296875 C-34.22642809 22.24701246 -32.45772539 20.14313002 -30.6875 18 C-24.42769074 10.83970774 -10.30754223 -4.58112988 0 0 Z " fill="#787D82" transform="translate(405,4)"/>
<path d="M0 0 C24.69060857 11.75562103 45.95559736 41.64217165 55.1015625 66.55078125 C74.38383581 121.56039082 74.38383581 121.56039082 63.70703125 144.9140625 C47.55765013 174.10859588 15.85158691 199.05287764 -16 209 C-19.3204766 209.74175015 -22.65226352 210.39403489 -26 211 C-43.29568241 152.32810566 -43.83287089 68.08533651 -17 12 C-8.78821462 -2.47413431 -8.78821462 -2.47413431 0 0 Z M-8.31640625 38.43359375 C-20.47722981 65.30939504 -21.36180782 96.76186549 -21.4375 125.75 C-21.4436734 126.75172241 -21.4498468 127.75344482 -21.45620728 128.78552246 C-21.68687358 156.09339348 -21.68687358 156.09339348 -14 182 C8.72886372 178.75301947 31.91209192 160.2598754 45.3125 142.5 C46.5638198 140.68171494 47.79516203 138.84941268 49 137 C49.45761719 136.3296875 49.91523438 135.659375 50.38671875 134.96875 C57.22487617 122.87600846 52.88237378 105.54772219 49.48828125 93.02734375 C44.55192334 75.92441128 37.17517453 61.81324852 26 48 C25.44054687 47.29617187 24.88109375 46.59234375 24.3046875 45.8671875 C18.39618445 38.66720837 10.53238951 30.866397 1.375 28.25 C-3.54929412 29.80504025 -5.95295338 34.06436189 -8.31640625 38.43359375 Z " fill="#C0C0C0" transform="translate(115,4)"/>
<path d="M0 0 C21.82794925 17.93214729 23.85506875 64.65753658 26.45703125 90.62109375 C27.72294989 104.82193244 28.24044815 118.93533351 28.25 133.1875 C28.25067474 134.10153595 28.25134949 135.0155719 28.25204468 135.95730591 C28.22197444 161.78482802 26.35977635 186.7026736 17 211 C-15.25197685 203.95646483 -48.45959996 180.51696751 -66.8125 153.125 C-77.60999538 136.02565354 -76.71093057 117.76108931 -72.42919922 98.421875 C-65.81646396 70.04903036 -56.09171753 45.89991155 -36.10546875 24.296875 C-34.22642809 22.24701246 -32.45772539 20.14313002 -30.6875 18 C-24.42769074 10.83970774 -10.30754223 -4.58112988 0 0 Z M-33.5 47.25 C-35.00963273 49.15908882 -36.50974775 51.07574447 -38 53 C-38.69351563 53.86625 -39.38703125 54.7325 -40.1015625 55.625 C-48.18545598 66.11221317 -53.45427906 78.27801414 -57 91 C-57.18191895 91.64775391 -57.36383789 92.29550781 -57.55126953 92.96289062 C-61.27787114 106.60924579 -64.33618381 121.84865513 -58.375 135.25 C-46.29501672 156.15766336 -23.50894701 172.79361307 -1 181 C1.32393178 181.39356909 3.65710926 181.74228202 6 182 C11.55557058 167.18514511 13.14801875 151.37316191 13.16796875 135.64453125 C13.17129715 134.69922043 13.17462555 133.75390961 13.17805481 132.779953 C13.18307798 130.79430623 13.18546458 128.80865116 13.18530273 126.82299805 C13.18748217 123.83693019 13.20566859 120.85123685 13.22460938 117.86523438 C13.25697705 106.71280479 12.644176 96.03053743 11 85 C10.83475368 83.47530152 10.67971052 81.94939373 10.54296875 80.421875 C8.9436579 63.90152119 6.041083 40.70353603 -7 29 C-17.19526109 27.72977075 -27.58762897 40.13288213 -33.5 47.25 Z " fill="#B7B7B7" transform="translate(405,4)"/>
<path d="M0 0 C-0.20568604 1.68863159 -0.20568604 1.68863159 -0.41552734 3.41137695 C-1.84481789 15.67977074 -2.40783683 27.84426187 -2.625 40.1875 C-2.66333381 42.02801011 -2.70239336 43.86850526 -2.7421875 45.70898438 C-2.83644137 50.13919614 -2.92104995 54.56949019 -3 59 C1.01768602 58.22668261 5.03364821 57.44496864 9.04833984 56.65625 C10.40729113 56.39040296 11.76665362 56.12664722 13.12646484 55.86523438 C21.58079607 54.23819802 29.77811122 52.32308848 38.00732422 49.76074219 C40.85730744 49.03627264 43.08112637 48.6963502 46 49 C62.68208946 65.02788987 66.12224557 91.00438108 68.2277832 112.77365112 C68.6964028 117.57463786 69.22161087 122.36933678 69.75 127.1640625 C69.85332642 128.10295822 69.95665283 129.04185394 70.06311035 130.00920105 C72.8320488 158.92626901 72.8320488 158.92626901 85.66015625 184.23046875 C87.01214814 186.01604404 87.77208591 187.60205718 88.5625 189.6875 C90.15567382 193.35872663 92.08188214 195.31225987 95 198 C95.33 198.66 95.66 199.32 96 200 C79.48727777 195.45301852 67.10640974 184.28005316 58 170 C54.95769835 164.61748611 52.40317828 158.98424447 49.8125 153.375 C48.47201144 150.50440691 47.12374138 147.63758178 45.76953125 144.7734375 C45.44598663 144.08820007 45.12244202 143.40296265 44.78909302 142.69696045 C42.56315331 138.03729171 40.11153053 133.59685838 37.37084961 129.21582031 C35.98922438 126.98258246 34.73110665 124.70926015 33.484375 122.3984375 C31.02193863 117.92717146 28.21848472 113.77334756 25.25 109.625 C24.72559326 108.88822021 24.20118652 108.15144043 23.66088867 107.39233398 C17.32640218 98.56767911 10.41970274 90.35212195 3.10546875 82.3203125 C1.27082315 80.29845816 -0.52768786 78.25321478 -2.3125 76.1875 C-8.81687886 68.73893711 -15.47326215 61.41534403 -22.56420898 54.52050781 C-43.10713764 34.5298984 -43.10713764 34.5298984 -43.5 24.25 C-43.37043715 19.35540359 -42.13630836 16.4973402 -38.94921875 12.8125 C-28.46723313 3.06572379 -13.91404848 -0.06578746 0 0 Z " fill="#C0C0C0" transform="translate(134,298)"/>
<path d="M0 0 C13.22961225 -0.89898622 26.11950797 1.59152454 36.515625 10.515625 C40.29979126 14.29979126 42.23941759 17.33587421 42.6875 22.6875 C41.83319579 38.65824267 21.9197693 53.16175774 11.34375 63.62890625 C8.72407496 66.27914416 6.274959 69.02784574 3.859375 71.86328125 C2.00490501 73.99436336 0.08748086 76.05770849 -1.84399414 78.11889648 C-12.26755412 89.28454008 -21.27229455 101.48567102 -30 114 C-30.57621094 114.81082031 -31.15242188 115.62164062 -31.74609375 116.45703125 C-35.06735926 121.24482959 -37.69686635 126.20808102 -40.2421875 131.4453125 C-42.78555316 136.58856306 -45.49038195 141.64369058 -48.18212891 146.71044922 C-50.58963577 151.26097119 -52.91083274 155.83809627 -55.14526367 160.47583008 C-63.76707425 178.28879581 -75.03150724 190.31069403 -93.22265625 198.46875 C-95 199 -95 199 -97 198 C-96.236875 197.443125 -95.47375 196.88625 -94.6875 196.3125 C-91.36048882 193.44972294 -89.63533975 190.7244936 -88.125 186.625 C-87 184 -87 184 -84.62109375 180.83984375 C-81.90115639 177.07347516 -80.34338445 173.34382611 -78.9375 168.9375 C-78.68492432 168.14843262 -78.43234863 167.35936523 -78.17211914 166.54638672 C-74.15160068 153.44541774 -72.3026933 140.10754247 -70.8203125 126.515625 C-70.71632645 125.56815399 -70.61234039 124.62068298 -70.50520325 123.64450073 C-69.98381424 118.86095398 -69.48226064 114.07658307 -69.01342773 109.28759766 C-68.07720994 100.09719296 -66.800819 91.15260108 -64.58203125 82.17578125 C-64.38613907 81.37909027 -64.19024689 80.58239929 -63.98841858 79.76156616 C-61.83989894 71.58608588 -58.30165173 64.24599639 -54 57 C-53.13181641 55.50339844 -53.13181641 55.50339844 -52.24609375 53.9765625 C-48.51756323 48.35348862 -48.51756323 48.35348862 -45.0546875 47.546875 C-42.54674596 47.71345414 -40.40634874 48.26937145 -38 49 C-37.08476562 49.26941406 -36.16953125 49.53882813 -35.2265625 49.81640625 C-32.99172544 50.47582114 -30.75882668 51.14182226 -28.52734375 51.8125 C-18.54239036 54.5864913 -8.18587729 56.13883135 2 58 C1.88007411 52.31142513 1.75575542 46.62296767 1.62768555 40.93457031 C1.58486539 39.00686121 1.54316387 37.07912688 1.50268555 35.15136719 C1.25527364 23.40999231 0.85487486 11.71440788 0 0 Z " fill="#B7B7B7" transform="translate(379,299)"/>
<path d="M0 0 C13.48397463 9.40037212 21.26706439 22.29115993 24.28515625 38.45703125 C24.77748438 41.57286136 25.22168783 44.68556192 25.60546875 47.81640625 C28.57546875 47.81640625 31.54546875 47.81640625 34.60546875 47.81640625 C34.60546875 48.14640625 34.60546875 48.47640625 34.60546875 48.81640625 C31.96546875 48.81640625 29.32546875 48.81640625 26.60546875 48.81640625 C26.74839355 49.71617187 26.89131836 50.6159375 27.03857422 51.54296875 C28.72998644 63.3370606 28.83855426 74.91884305 28.73046875 86.81640625 C28.72040785 88.76692243 28.71128756 90.7174437 28.703125 92.66796875 C28.68138324 97.38424334 28.64702909 102.10026639 28.60546875 106.81640625 C21.36103784 106.2130215 14.34369468 105.12691873 7.23046875 103.62890625 C6.1926123 103.41041016 5.15475586 103.19191406 4.08544922 102.96679688 C-32.90637116 94.9484203 -32.90637116 94.9484203 -40.15625 84.04296875 C-44.8470531 75.60840166 -48.52810799 65.51994692 -48.39453125 55.81640625 C-47.67499268 55.53031494 -46.9554541 55.24422363 -46.21411133 54.94946289 C-26.74277064 47.29227569 -26.74277064 47.29227569 -9.39453125 35.81640625 C-8.60175781 35.17703125 -7.80898438 34.53765625 -6.9921875 33.87890625 C-3.40805766 30.87160744 0.11992929 27.81488277 2.60546875 23.81640625 C2.71210156 21.81026438 2.71210156 21.81026438 1.60546875 19.81640625 C-5.91536765 14.39876129 -13.70536761 11.671109 -23 12.203125 C-31.6788955 13.77111878 -38.54760933 17.87235986 -43.9921875 24.78125 C-46.0078864 27.70654005 -47.75311084 30.66487906 -49.39453125 33.81640625 C-49.72453125 33.81640625 -50.05453125 33.81640625 -50.39453125 33.81640625 C-50.97427874 14.78136374 -50.97427874 14.78136374 -44.39453125 6.81640625 C-32.51054588 -5.47179631 -15.17778254 -9.02293004 0 0 Z " fill="#828B8E" transform="translate(352.39453125,250.18359375)"/>
<path d="M0 0 C7.43127467 4.40942854 12.67055254 9.22123166 15.66796875 17.4609375 C16.95101923 23.38629791 16.60159753 29.41463472 16.3125 35.4375 C13.94922682 32.53001892 11.73261644 29.59496828 9.625 26.5 C5.28013704 20.66641496 -0.80527947 16.72133211 -7.6875 14.4375 C-18.31695033 12.90349248 -27.03204951 15.2025342 -35.6875 21.4375 C-36.90752758 23.35863656 -36.90752758 23.35863656 -36.6875 25.4375 C-27.35498438 42.26485442 -2.75096332 51.29465321 14.3125 57.4375 C12.99131698 70.18052331 9.69027501 84.08918197 -0.375 92.75 C-9.07369364 97.18140997 -18.51601121 99.60971236 -27.9375 102 C-29.12174561 102.30301025 -30.30599121 102.60602051 -31.52612305 102.91821289 C-53.65457706 108.51968152 -53.65457706 108.51968152 -62.6875 108.4375 C-63.30641773 65.03391069 -63.30641773 65.03391069 -60.140625 49.64501953 C-59.66560998 47.3308569 -59.25372217 45.0100909 -58.84375 42.68359375 C-55.98980377 27.39200138 -50.17370821 12.93881139 -37.06640625 3.5625 C-34.64380062 2.06502015 -32.24434965 0.69052566 -29.6875 -0.5625 C-28.94113281 -0.93375 -28.19476563 -1.305 -27.42578125 -1.6875 C-18.86998795 -4.42144821 -8.04960447 -3.82101478 0 0 Z " fill="#91999C" transform="translate(193.6875,248.5625)"/>
<path d="M0 0 C0.5878125 0.58007812 0.5878125 0.58007812 1.1875 1.171875 C-3.94534504 12.50582216 -14.57552781 22.96829249 -25.8125 28.171875 C-30.97713393 29.90810859 -34.79612402 29.51491307 -39.75 27.296875 C-50.12652557 21.44303909 -57.51085106 12.35331016 -64.8125 3.171875 C-62.72119269 -2.02873047 -58.68542548 -3.55677792 -53.8125 -5.828125 C-37.79951219 -11.54704922 -13.45706405 -11.71692646 0 0 Z " fill="#404A50" transform="translate(287.8125,459.828125)"/>
<path d="M0 0 C10.82197066 6.17370401 16.9067651 16.1000706 20.66015625 27.78515625 C22.00781603 32.84358155 22.76444563 37.31004777 22.625 42.5625 C1.98361803 41.82530779 -18.74147877 28.13316789 -32.9453125 14 C-36.40101481 10.22327616 -36.40101481 10.22327616 -36.296875 7.578125 C-35.00205855 4.74708565 -33.31255932 3.95620956 -30.625 2.4375 C-29.76390625 1.93992187 -28.9028125 1.44234375 -28.015625 0.9296875 C-18.92972859 -3.77454881 -9.44667674 -4.33322783 0 0 Z " fill="#414C52" transform="translate(192.375,264.4375)"/>
<path d="M0 0 C5.76724138 3.14224138 5.76724138 3.14224138 8.25 5.625 C7.59698513 11.8350434 1.92814002 16.24570684 -2.6015625 19.96875 C-11.56677422 26.77777156 -20.25728503 32.13437872 -30.6875 36.375 C-31.62529297 36.77332031 -32.56308594 37.17164063 -33.52929688 37.58203125 C-39.36336998 39.97404176 -44.45197298 41.23742911 -50.75 41.625 C-49.59893993 27.81227915 -46.44369082 14.51312785 -35.9375 4.6875 C-24.65525986 -4.11394164 -13.111433 -6.68867175 0 0 Z " fill="#27333A" transform="translate(347.75,265.375)"/>
<path d="M0 0 C22.83495146 0 22.83495146 0 33 9 C28.00789629 20.02317318 17.21119447 31.26946508 6 36 C4.02 36 2.04 36 0 36 C0 24.12 0 12.24 0 0 Z " fill="#263138" transform="translate(256,452)"/>
<path d="M0 0 C3.57545703 0.02280993 5.54438404 0.46007439 8.3125 2.75 C11.98849422 6.60979393 12.15131967 8.95902706 12.1015625 14.1171875 C11.67430676 17.45440122 10.21784301 19.10710517 7.8125 21.375 C3.80635048 24.04576635 0.52311361 24.20287585 -4.1875 23.375 C-7.28382649 20.93746638 -9.01050487 18.64049269 -11.1875 15.375 C-11.54527637 10.4762158 -10.84423748 7.16308498 -7.6875 3.375 C-6.8625 2.715 -6.0375 2.055 -5.1875 1.375 C-3.63766739 -0.17483261 -2.15081622 0.09367039 0 0 Z " fill="#27B6CC" transform="translate(186.1875,267.625)"/>
<path d="M0 0 C3.15456488 1.81219684 4.56405306 3.21114363 6.3125 6.375 C7.54623334 11.08561821 7.58999694 13.86370959 5.3125 18.25 C1.93935791 22.26130411 -0.37734484 22.82614409 -5.5 23.375 C-9.62788567 22.93272654 -11.0995228 21.9004772 -14 19 C-16.68121076 14.97818385 -16.81344335 11.72763609 -16 7 C-12.2030705 0.18246487 -7.30198288 -0.90958956 0 0 Z " fill="#09ACC5" transform="translate(330,268)"/>
<path d="M0 0 C0.66 0 1.32 0 2 0 C-0.08730757 6.0879804 -3.63838054 10.4636127 -9 14 C-16.83640119 17.73919651 -24.38481402 18.72606722 -33 19 C-33 15.37 -33 11.74 -33 8 C-30.90011719 7.85304688 -30.90011719 7.85304688 -28.7578125 7.703125 C-13.20225296 7.13956886 -13.20225296 7.13956886 0 0 Z " fill="#525759" transform="translate(289,486)"/>
<path d="M0 0 C0 0.33 0 0.66 0 1 C-2.97 1 -5.94 1 -9 1 C-9 2.65 -9 4.3 -9 6 C-9.54825439 6.04487549 -10.09650879 6.08975098 -10.66137695 6.13598633 C-26.77865531 7.11659585 -26.77865531 7.11659585 -42 12 C-39.90869269 6.79939453 -35.87292548 5.27134708 -31 3 C-20.96079727 -0.58542954 -10.51481302 -0.12468158 0 0 Z " fill="#50585C" transform="translate(265,451)"/>
<path d="M0 0 C12.91959938 -0.50923968 23.05153602 0.19176111 33 9 C32.67 9.66 32.34 10.32 32 11 C31.45730469 10.79503906 30.91460937 10.59007812 30.35546875 10.37890625 C29.64003906 10.10949219 28.92460937 9.84007812 28.1875 9.5625 C27.47980469 9.29566406 26.77210938 9.02882813 26.04296875 8.75390625 C22.65843634 7.50492966 19.69657915 6.7905981 16.11328125 6.46484375 C14.7065918 6.33432617 14.7065918 6.33432617 13.27148438 6.20117188 C12.29501953 6.11416016 11.31855469 6.02714844 10.3125 5.9375 C8.83040039 5.80118164 8.83040039 5.80118164 7.31835938 5.66210938 C4.87917852 5.43822321 2.43974413 5.21764761 0 5 C0 3.35 0 1.7 0 0 Z " fill="#384146" transform="translate(256,452)"/>
<path d="M0 0 C3.29714793 0.32971479 4.6226839 0.6226839 7 3 C6.625 5.625 6.625 5.625 6 8 C3.125 8.625 3.125 8.625 0 9 C-2 7 -2 7 -2.25 4.5 C-2 2 -2 2 0 0 Z " fill="#E9F7FA" transform="translate(320,273)"/>
<path d="M0 0 C2.375 0.75 2.375 0.75 3.375 1.75 C3.5625 4.1875 3.5625 4.1875 3.375 6.75 C2.715 7.41 2.055 8.07 1.375 8.75 C-1.75 8.375 -1.75 8.375 -4.625 7.75 C-5.3125 5.4375 -5.3125 5.4375 -5.625 2.75 C-3.9659358 -0.015107 -3.22812218 -0.30744021 0 0 Z " fill="#ECF9FA" transform="translate(184.625,273.25)"/>
</svg>
